<?xml version="1.0" encoding="UTF-8"?>
<!-- Created with Inkscape (http://www.inkscape.org/) -->
<svg width="40mm" height="40mm" version="1.1" viewBox="0 0 40 40" xmlns="http://www.w3.org/2000/svg" xmlns:cc="http://creativecommons.org/ns#" xmlns:dc="http://purl.org/dc/elements/1.1/" xmlns:rdf="http://www.w3.org/1999/02/22-rdf-syntax-ns#">
 <metadata>
  <rdf:RDF>
   <cc:Work rdf:about="">
    <dc:format>image/svg+xml</dc:format>
    <dc:type rdf:resource="http://purl.org/dc/dcmitype/StillImage"/>
    <dc:title/>
   </cc:Work>
  </rdf:RDF>
 </metadata>
 <g transform="translate(-90,-107)">
  <path d="m96.615 107h26.771c3.6645 0 6.6146 2.9501 6.6146 6.6146v26.771c0 3.6645-2.9501 6.6146-6.6146 6.6146h-26.771c-3.6645 0-6.6146-2.9501-6.6146-6.6146v-26.771c0-3.6645 2.9501-6.6146 6.6146-6.6146z" fill="#1e88e5" stroke-width=".26458"/>
  <g transform="scale(1.0015 .99848)" aria-label="M">
   <path transform="translate(-0.1, 0)" d="m108.59 135.16q-0.31794-0.76306-0.85844-1.9394-0.50871-1.1764-1.1128-2.5436-0.60409-1.3672-1.3036-2.7979-0.66768-1.4625-1.2718-2.7343-0.6041-1.3036-1.1446-2.321-0.50871-1.0174-0.82666-1.5579-0.34973 3.7517-0.57229 8.1394-0.22257 4.3558-0.38154 8.807h-3.0205q0.12718-2.8615 0.28615-5.7548 0.15897-2.9251 0.34974-5.723 0.22256-2.8297 0.44512-5.5004 0.25436-2.6707 0.5405-5.0553h2.7025q0.85845 1.399 1.8441 3.3066 0.98562 1.9077 1.9712 4.0061 0.98563 2.0666 1.9077 4.1651 0.92204 2.0666 1.6851 3.7835 0.76306-1.7169 1.6851-3.7835 0.92204-2.0984 1.9077-4.1651 0.98563-2.0984 1.9712-4.0061 0.98563-1.9077 1.8441-3.3066h2.7025q1.081 10.651 1.6215 22.034h-3.0205q-0.15897-4.4512-0.38154-8.807-0.22256-4.3876-0.57229-8.1394-0.31795 0.5405-0.85845 1.5579-0.50871 1.0174-1.1128 2.321-0.60409 1.2718-1.3036 2.7343-0.66768 1.4308-1.2718 2.7979-0.60409 1.3672-1.1446 2.5436-0.50871 1.1764-0.82665 1.9394z" fill="#fff" stroke-width=".26424"/>
  </g>
 </g>
</svg>
